<svg width="18" height="20" viewBox="0 0 18 20" fill="none" xmlns="http://www.w3.org/2000/svg">
<path d="M14.1948 7.57983L16.0839 8.60177L16.4794 8.82396C17.322 9.29735 17.322 10.5178 16.4794 10.9912L11.1135 14.0059C9.86905 14.7051 8.3536 14.7051 7.10914 14.0059L1.74326 10.9912C0.900683 10.5178 0.900685 9.29735 1.74326 8.82396L2.13875 8.60177L3.92319 7.57983M14.6056 12.1299L16.3228 12.9943C17.2084 13.4401 17.2368 14.702 16.3722 15.1878L11.1135 18.1423C9.86905 18.8415 8.3536 18.8415 7.10914 18.1423L1.92715 15.2309C1.04768 14.7368 1.09614 13.4469 2.01017 13.0211L3.92319 12.1299M11.1135 9.60996L16.4794 6.59523C17.322 6.12185 17.322 4.90141 16.4794 4.42802L11.1135 1.4133C9.86906 0.714123 8.3536 0.714122 7.10914 1.4133L1.74326 4.42802C0.900685 4.9014 0.900683 6.12185 1.74326 6.59523L7.10914 9.60995C8.3536 10.3091 9.86905 10.3091 11.1135 9.60996Z" stroke="#FEFEFE" stroke-width="1.33333"/>
</svg>
